<svg width="45" height="45" viewBox="0 0 45 45" fill="none" xmlns="http://www.w3.org/2000/svg">
<path d="M24.7106 20.25L39.853 5.10597C40.2695 4.68909 40.4993 4.13292 40.5 3.53986C40.5 2.94648 40.2702 2.38966 39.853 1.97343L38.526 0.646725C38.1089 0.228856 37.5527 0 36.959 0C36.3664 0 35.8102 0.228856 35.3931 0.646725L20.2507 15.7898L5.10761 0.646725C4.69109 0.228856 4.13462 0 3.54128 0C2.9486 0 2.39213 0.228856 1.97561 0.646725L0.648 1.97343C-0.216 2.83749 -0.216 4.2429 0.648 5.10597L15.7907 20.25L0.648 35.3934C0.231146 35.8109 0.00164634 36.3671 0.00164634 36.9601C0.00164634 37.5532 0.231146 38.1094 0.648 38.5266L1.97528 39.8533C2.3918 40.2708 2.9486 40.5 3.54095 40.5C4.13429 40.5 4.69076 40.2708 5.10728 39.8533L20.2503 24.7099L35.3927 39.8533C35.8099 40.2708 36.366 40.5 36.9587 40.5H36.9594C37.5524 40.5 38.1085 40.2708 38.5257 39.8533L39.8527 38.5266C40.2692 38.1097 40.499 37.5532 40.499 36.9601C40.499 36.3671 40.2692 35.8109 39.8527 35.3937L24.7106 20.25Z" fill="white"/>
</svg>
