<svg width="70" height="70" viewBox="0 0 70 70" fill="none" xmlns="http://www.w3.org/2000/svg">
<g clip-path="url(#clip0)">
<path d="M68.1192 30.4466C68.1176 30.445 68.116 30.4434 68.1144 30.4418L39.557 1.88843C38.3398 0.670776 36.7214 0 35 0C33.2785 0 31.6601 0.670242 30.4424 1.88789L1.89995 30.4269C1.89034 30.4365 1.88073 30.4466 1.87111 30.4562C-0.628532 32.97 -0.624259 37.0486 1.8834 39.556C3.02907 40.7021 4.54221 41.366 6.16003 41.4354C6.22573 41.4418 6.29196 41.445 6.35872 41.445H7.49692V62.4586C7.49692 66.6167 10.8805 70 15.0402 70H26.2127C27.3451 70 28.2637 69.082 28.2637 67.9492V51.4746C28.2637 49.5771 29.8073 48.0337 31.705 48.0337H38.2949C40.1926 48.0337 41.7362 49.5771 41.7362 51.4746V67.9492C41.7362 69.082 42.6543 70 43.7872 70H54.9597C59.1194 70 62.503 66.6167 62.503 62.4586V41.445H63.5584C65.2793 41.445 66.8977 40.7748 68.116 39.5571C70.6263 37.0454 70.6274 32.9599 68.1192 30.4466Z" fill="white"/>
</g>
<defs>
<clipPath id="clip0">
<rect width="70" height="70" fill="white"/>
</clipPath>
</defs>
</svg>
